<svg height="100" width="75" xmlns="http://www.w3.org/2000/svg"><path d="m45.834 46.627c4.78 4.78 13.1 5.754 19.257-.403 5.2-5.199 5.198-13.657 0-18.855l-17.94-17.941c-4.816-4.814-13.131-5.728-19.259.402-4.701 4.7-5.151 12.066-1.352 17.277l-6.265 6.265c-1.339 1.339-.317 3.644 1.585 3.533l13.474-.777 10.499 10.499zm11.404-11.483a2.567 2.567 0 1 1 -3.629 3.631 2.567 2.567 0 0 1 3.63-3.631zm-21.493-14.235a2.567 2.567 0 1 1 3.63-3.629 2.567 2.567 0 0 1 -3.63 3.63zm12.562 5.303a2.567 2.567 0 1 1 -3.63 3.63 2.567 2.567 0 0 1 3.63-3.63zm6.853 37.486-17.941-17.942c-5.198-5.197-13.658-5.197-18.857.001-6.072 6.073-5.26 14.4-.402 19.258l10.499 10.5-.777 13.473c-.11 1.886 2.186 2.931 3.533 1.584l6.265-6.265c5.212 3.8 12.577 3.349 17.277-1.352 6.06-6.059 5.274-14.386.403-19.257zm-29.347-6.458a2.567 2.567 0 1 1 3.63-3.631 2.567 2.567 0 0 1 -3.63 3.63zm8.932 8.931a2.567 2.567 0 1 1 3.63-3.629 2.567 2.567 0 0 1 -3.63 3.63zm8.932 8.933a2.567 2.567 0 1 1 3.63-3.631 2.567 2.567 0 0 1 -3.63 3.63z" fill="#5a1cbb"/></svg>